# xmcd CD database file generated by Grip 2.94
# 
# Track frame offsets:
#       150
#       14629
#       51735
#       77240
#       99983
#       137604
#       173149
#       232958
#       248834
#       292704
# 
# Disc length: 4196 seconds
# 
# Revision: 3
# Processed by: cddbd v1.4b41PL1 Copyright (c) Steve Scherf et al.
# Submitted via: Grip 2.94
# 
DISCID=8110620a
DTITLE=Duffy Bishop - Palace of Culture
DYEAR=1900
DGENRE=
TTITLE0=Breakfast Feud Intro
TTITLE1=Insane Asylum
TTITLE2=The Love You're After
TTITLE3=Bath of Love
TTITLE4=Easy Baby
TTITLE5=Ten Minute Kiss
TTITLE6=Room With a View
TTITLE7=Old Black Magic
TTITLE8=Hey Chester
TTITLE9=Everyone's Coming to a Party
EXTD=
EXTT0=
EXTT1=
EXTT2=
EXTT3=
EXTT4=
EXTT5=
EXTT6=
EXTT7=
EXTT8=
EXTT9=
PLAYORDER=
